# xmcd
#
# Track frame offsets:
#	150
#	14265
#	26625
#	43140
#	61302
#	73812
#	86750
#	99022
#	119467
#	131427
#	146247
#	165742
#	183675
#	195405
#	210920
#	223632
#	242232
#	259609
#	271282
#	284827
#	300192
#	315007
#
# Disc length: 4422
#
# Revision: 3
# Processed by: cddbd v1.5.1PL0 Copyright (c) Steve Scherf et al.
# Submitted via: ExactAudioCopy v0.90b4
# Normalized: r2:TDELIM( - ),TSWAP
#
DISCID=3d114416
DTITLE=Time Life Music - Contemporary Country - The '80s - Pure Gold
DYEAR=1900
DGENRE=Country
TTITLE0=George Strait - Am I Blue
TTITLE1=Johnny Lee - Hey Bartender
TTITLE2=Highway 101 - (Do You Love Me) Just Say Yes
TTITLE3=Tanya Tucker - I'll Come Back As Another Woman
TTITLE4=John Conlee - She Can't Say That Anymore
TTITLE5=George Jones - Still Doin' Time
TTITLE6=Reba McEntire - How Blue
TTITLE7=Merle Haggard - I Think I'll Just Stay Here And Drink
TTITLE8=John Schneider - I've Been Around Enough To Know
TTITLE9=Mickey Gilley - Fool For Your Love
TTITLE10=Willie Nelson - Last Thing I Needed First Thing This Morning
TTITLE11=Alabama - Dixieland Delight
TTITLE12=Holly Dunn - Are You Ever Gonna Love Me
TTITLE13=Dan Seals - My Baby's Got Good Timing
TTITLE14=The O'Kanes - Can't Stop My Heart From Loving You
TTITLE15=Randy Travis - No Place Like Home
TTITLE16=Vern Gosdin - Chiseled In Stone
TTITLE17=Gene Watson - You're Out Doing What I'm Here Doing Without
TTITLE18=John Anderson - Black Sheep
TTITLE19=Foster And Lloyd - Crazy Over You
TTITLE20=Dolly Parton - But You Know I Love You
TTITLE21=Emmylou Harris - Beneath Still Waters
EXTD=
EXTT0=
EXTT1=
EXTT2=
EXTT3=
EXTT4=
EXTT5=
EXTT6=
EXTT7=
EXTT8=
EXTT9=
EXTT10=
EXTT11=
EXTT12=
EXTT13=
EXTT14=
EXTT15=
EXTT16=
EXTT17=
EXTT18=
EXTT19=
EXTT20=
EXTT21=
PLAYORDER=
